<?xml version="1.0"?>
<svg xmlns:rdf="http://www.w3.org/1999/02/22-rdf-syntax-ns#" xmlns="http://www.w3.org/2000/svg" xmlns:cc="http://web.resource.org/cc/" xmlns:xlink="http://www.w3.org/1999/xlink" xmlns:dc="http://purl.org/dc/elements/1.1/" xmlns:svg="http://www.w3.org/2000/svg" id="grocery_basket_xA0_Image_1_" style="enable-background:new 0 0 185.76 131.76" xml:space="preserve" viewBox="0 0 185.76 131.76" version="1.1" y="0px" x="0px">
<g clip-rule="evenodd" fill-rule="evenodd">
	<path d="m162.24 14.4c-1.598 0-3.706 4.332-4.851 5.47-1.125 1.12-3.569 4.304-3.79 6.05-1.841 0-3.462 4.419-4.319 5.76-0.94 1.461-1.947 2.862-2.88 4.32-0.933 1.453-2.616 2.22-2.88 4.32-1.723 0-1.13 3.463-3.36 3.84-0.052-2.892 2.751-5.688 4.143-7.218 0.887-0.976 1.918-3.173 2.663-4.456 0.792-1.362 2.968-4.646 3.754-4.646-0.221-1.579 4.827-7.68 5.76-7.68 0.398-1.826 4.344-7.609 6.24-8.16 0.16 1.008-0.76 1.327-0.47 2.4-0.24 0-0.36-1.322 0 0z"/>
	<path d="m137.76 43.2c0-1.021 3.275-5.76 4.32-5.76 0.098-2.746 3.769-4.359 3.84-6.72 1.567-1.03 2.8-5.826 4.8-5.76-0.271-0.958 0.752-0.962 0.48-1.92 1.544 0 2.042-2.401 3.102-3.619 0.866-0.995 5.189-5.824 3.243-6.023-2.563-0.262-5.866 0.896-8.5 1.246-1.632 0.217-10.843 0.327-10.325 2.635-1.498 0.917-3.12 4.154-4.8 4.32-0.257-1.838 3.395-4.522 4.602-5.719 2.596-2.575 7.677 0.108 10.519-2.441 2.629-0.378 7.715 0.636 9.84-0.96 2.576-0.178-3.339 6.479-3.36 7.2-1.376 1.305-1.884 2.47-2.88 3.84-0.437 0.602-1.807 2.887-2.36 3.147-2.106 0.99-4.253 6.081-5.757 8.175-1.72 2.398-3.64 7.569-6.76 8.359 0-0.48 1.28-0.323 0 0z"/>
	<path d="m161.76 22.08c-0.204 0.493-0.524 0.893-0.96 1.2 0.077 1.351 1.44-1.636 1.44 2.16-4.78 1.355-1.21-6.878-0.48-3.36-0.02 0.704-0.35-1.701 0 0z"/>
	<path d="m143.52 24.96c-0.272-0.958 0.751-0.962 0.479-1.92-0.471 0.568-0.951 1.128-1.44 1.68-0.215 0.818 2.613-0.496 0.467 1.546-1.56 1.484-2.758-1.813-4.786 0.134-5.014-2.626 4.287-6.074 3.359-3.36 1.716-0.681 0.57-1.169 2.287-0.998 1.059 0.106 1.873-0.66 2.993-0.442 0 1.377-2.06 3.123-3.36 3.36-0.32-1.117 1.76-0.32 0 0z"/>
	<path d="m163.2 24.96c1.973 0.259 0.118 3.19-0.96 3.36-0.23-1.444 0.47-2.133 0.96-3.36 0.71 0.093-0.41 1.031 0 0z"/>
	<path d="m157.44 26.4c1.879 0 3.359 5.594 3.359 7.68-0.899-0.192-3.033-4.116-1.92-5.04-0.15-0.655-1.9-0.951-1.44-2.64 0.32 0-0.36 1.323 0 0z"/>
	<path d="m142.08 27.84c0 1.912-1.444 2.25-3.36 1.92 0.07-1.807 1.99-1.929 3.36-1.92 0 0.48-1.77-0.012 0 0z"/>
	<path d="m164.16 28.32c0.183 0.752-0.814 0.325-0.48 1.2 1.005 0.659 1.209 2.06 1.44 3.12-0.886 0.317-1.242 0.034-1.068-0.851-0.41 0.231-0.854 0.355-1.332 0.371 0.05-1.06-1.04-4.441 1.44-3.84 0.18 0.74-1.27-0.307 0 0z"/>
	<path d="m155.52 29.76c2.782 0 0.672 3.909 0.628 3.844-0.43-0.618-0.8-3.29-0.63-3.844 0.32 0-0.38 1.233 0 0z"/>
	<path d="m52.32 30.24c4.489 0.356 8.933 1.007 13.44 0.48-1.404 2.366-12.675 2.153-13.44-0.48 4.962 0.394 0.524 1.805 0 0z"/>
	<path d="m93.6 32.16h0.96c-0.051 0.972-0.53 1.612-1.439 1.92-0.273-0.957 0.751-0.962 0.479-1.92 0.32 0 0.317 1.117 0 0z"/>
	<path d="m17.76 33.12c-0.06 1.009 1.361 2.215 2.4 1.92 0.994 3.875-1.188 4.591-1.92 8.16-1.519 0.612-5.256 1.061-5.76-1.2-0.34-1.494-0.984 1.858-1.314-1.815-0.134-1.491-0.343-4.665 1.314-4.665-0.153 0.894-1.03 2.296 0.24 2.88 0.692-2.859 1.358-5.839 5.04-5.28-0.041 0.681-4.056-0.616 0 0zm-1.92 2.4c0.48 0.16 0.64 0 0.48-0.48-0.48-0.16-0.64 0-0.48 0.48 0.16 0 0-0.16 0 0zm-0.96 0.96v0.96c0.566-0.427 1.206-0.587 1.92-0.48 0.23-0.564 0.07-0.884-0.48-0.96 0.227 0.865-1.103 0.381-1.44 0.48 0 0.32 0.495-0.145 0 0zm1.92 2.4c0.785 0.105 1.265-0.215 1.44-0.96-1.009 0.148-1.327-0.774-2.4-0.48-0.121 1.046 1.554-0.009 0.96 1.44 0.919 0.119 0.556-1.356 0 0zm-2.88 0.48c0.239 0.982-2.133 2.227-0.212 2.806 2.15 0.648 2.604-1.647 2.612-3.286-1.073-0.294-1.392 0.628-2.4 0.48 0.335 1.375 1.125 0.165 0 0zm2.88 0.48c0.48 0.16 0.64 0 0.48-0.48-0.48-0.16-0.64 0-0.48 0.48 0.16 0 0-0.16 0 0zm-0.48 0.96c0.104 0.536 0.424 0.856 0.96 0.96-0.099-0.337 0.385-1.667-0.48-1.44 0.031 0.35-0.13 0.511-0.48 0.48 0.104 0.536 0.408 0.088 0 0z"/>
	<path d="m32.16 34.08c0.213 1.567-1.36 1.513-2.4 1.44 0.277 1.539 4.03 1.058-0.48 2.4-1.105-0.379-2.394-1.652-1.743-2.895 0.757-1.443 3.368-0.96 4.623-0.945 0.202 1.482-2.348-0.028 0 0z"/>
	<path d="m156.48 34.08c1.648 0 2.406 3.84 0.48 3.84 0.146-1.005-0.174-1.805-0.96-2.4-0.05-0.754 0.79-0.53 0.48-1.44 0.32 0 0.33 0.972 0 0z"/>
	<path d="m33.12 34.56c1.34 0.285 2.764 0.776 2.88 2.4 1.09 0.102 0.521-1.334 1.44-1.44 0.552-0.085 1.155 1.92-0.48 1.92 0.759 0.775 1.278 1.162 0.96 2.4 1.149-0.999 2.579-1.705 2.88-3.36 2.334-0.134 3.36 2.623 3.36 4.32-0.996-0.915-2.385-0.974-3.606-0.563-1.108 0.374-2.747-0.252-3.594 0.563 0.064-1.071-1.317-1.922-2.16-2.4-0.503 0.714-0.463 1.676-1.68 1.44v-5.28c1.452 0.308 0 1.76 0 0zm2.4 2.88c0.32-0.96 0-1.28-0.96-0.96 0.105 0.536 0.424 0.855 0.96 0.96 0-0.32-0.536-0.104 0 0z"/>
	<path d="m155.04 36c0.396-0.158 1.496 3.878 1.439 4.32-1.448 0-1.501-2.5-2.399-3.84 0.56 0.229 0.88 0.07 0.96-0.48 0.77-0.306 0.24 0.722 0 0z"/>
	<path d="m109.92 37.44c-0.029 0.52-1.586 0.737-1.92 0.96-0.739 0.074-1.459 0.234-2.16 0.48-0.91 0.371-0.541 1.814-1.68 1.92-0.711 2.183-0.799 5.863 1.417 7.223 1.14 0.7 1.693 1.545 3.099 1.461 0.735-0.043 2.687-0.529 3.164 0.436-1.105 1.757-5.653 0.296-6.7-0.769-1.461-1.485-2.358-2.678-2.493-5.158-0.141-2.598 1.294-4.197 2.297-5.65 0.52-0.76 5.23-1.654 4.97-0.903-0.05 0.944 0.26-0.764 0 0z"/>
	<path d="m113.28 37.92c2.779 0.364 2.725 3.753 3.84 5.28-0.9 0-3.48-3.904-3.84-5.28 1.84 0.241 0.56 2.158 0 0z"/>
	<path d="m32.64 38.4c-0.104 2.15-4.042 2.384-4.8 0.48 1.574 0.078 3.303 0.108 4.8-0.48-0.081 1.679-1.264 0.496 0 0z"/>
	<path d="m157.92 38.4c0.854 0 0.854 0.96 0 0.96v-0.96c0.16 0 0 0.32 0 0z"/>
	<path d="m149.28 39.36c1.12-0.32 1.439 0.16 0.96 1.44-0.74-0.175-1.06-0.655-0.96-1.44 0.32 0-0.12 0.919 0 0z"/>
	<path d="m150.24 41.76c0.479-0.16 0.64 0 0.479 0.48-0.48 0.16-0.64 0-0.48-0.48 0.16 0 0 0.16 0 0z"/>
	<path d="m147.36 42.24c1.078 0 2.403 2.328 0.96 2.88-0.7-0.826-1.02-1.786-0.96-2.88 0.32 0 0.05 1.232 0 0z"/>
	<path d="m58.56 45.6c3.391 0 0 3.391 0 0 0.48 0 0 0.48 0 0z"/>
	<path d="m115.68 45.6h0.96c-0.652 0.625-0.184 2.328-1.439 2.4-0.29-1.073 0.63-1.392 0.48-2.4 0.32 0 0.17 1.125 0 0z"/>
	<path d="m54.72 46.56c0.71 4.206-4.373-0.446 0 0 0.179 1.059-1.158-0.118 0 0z"/>
	<path d="m62.4 52.32c0.673-0.142 1.313-0.062 1.92 0.24-0.325 0.874-0.964 1.274-1.92 1.2v-1.44c0.574 0.146 0 0.48 0 0z"/>
	<path d="m57.12 54.24c0.867-0.228 0.334 0.945 0.48 1.44-0.867 0.227-0.335-0.945-0.48-1.44z"/>
	<path d="m98.88 55.68c0.48-0.16 0.641 0 0.48 0.48-0.48 0.16-0.64 0-0.48-0.48 0.16 0 0 0.16 0 0z"/>
	<path d="m105.12 55.68c0.364 0.909 2.223-0.137 2.399 0.96h-2.88c-0.29-0.77 0.78-0.19 0.48-0.96 0.32 0.799 0.3 0.777 0 0z"/>
	<path d="m61.44 56.16c0.687 0.273 1.167 0.753 1.44 1.44-0.841 0.875-2.681 0.509-2.4-0.96 0.564 0.23 0.884 0.07 0.96-0.48 0.687 0.273 0.242 0.722 0 0z"/>
	<path d="m99.84 62.4c0.48-0.16 0.641 0 0.48 0.48-0.48 0.16-0.64 0-0.48-0.48 0.16 0 0 0.16 0 0z"/>
	<path d="m166.08 74.88c-0.733 2.158-2.49 4.455-3.418 6.182-0.421 0.782-1.658 4.474-3.302 4.858 0-1.995 4.26-11.04 6.72-11.04-0.73 2.149-0.32 0 0 0z"/>
	<path d="m75.84 77.28c0.96-0.32 1.28 0 0.96 0.96-0.826 0.187-1.146-0.134-0.96-0.96 0.32 0-0.186 0.826 0 0z"/>
	<path d="m81.6 77.76c-0.249 1.76-2.571 1.648-3.84 1.92-0.049-1.473 2.794-1.914 3.84-1.92-0.238 1.682-1.114 0.006 0 0z"/>
	<path d="m153.6 77.76c1.251 0.357 4.632 4.896 4.32 6.24-1.59 0-4.32-4.908-4.32-6.24 1.49 0.427 0 0.48 0 0z"/>
	<path d="m77.76 81.12h2.88c-0.078 1.275-2.88 1.753-2.88 0 0.96 0 0 0.32 0 0z"/>
	<path d="m57.12 82.56c1.59 0 3.609 3.166 3.84 4.801-1.818-1.09-2.887-2.984-3.84-4.801 0.32 0 0.991 1.889 0 0z"/>
	<path d="m160.32 86.88c0.63 0.17 1.079 0.521 0.96 1.44-0.63-0.171-1.08-0.521-0.96-1.44z"/>
	<path d="m145.44 88.32c1.495 0.358 2.521 1.385 2.88 2.88 1.511 0.312 2.442 1.285 2.399 2.88-1.54-0.989-5.28-4.036-5.28-5.76 1.55 0.371 0 0.32 0 0z"/>
	<path d="m144 89.28c0 1.786-2.909 6.34-4.8 7.199-0.24-1.807 3.42-7.199 4.8-7.199 0 0.48-0.32 0 0 0z"/>
	<path d="m132 90.72c1.375 0.797 4.652 3.492 4.8 5.28-1.55-0.271-5.28-3.579-4.8-5.28 1.05 0.608-0.32 1.117 0 0z"/>
	<path d="m77.76 99.36h-1.44c0.258-1.68 2.1-2.425 3.36-2.881 0.275 1.709-1.992 1.324-1.92 2.881-0.48 0-0.077-1.677 0 0z"/>
	<path d="m48.96 96.96h1.44c0.156 2.101-6.62 6.72-8.64 6.72 0.968-1.78 7.603-4.907 7.2-6.72 0.48 0 0.332 1.496 0 0z"/>
	<path d="m138.24 97.92c-0.042 1.398-1.095 1.785-1.92 2.4-0.12-1.559 0.58-2.303 1.92-2.4z"/>
	<path d="m51.36 98.4c1.045 0 4.871 4.108 4.8 5.279-1.294-0.493 0.053 1.963-1.779-0.501-1.321-1.78-2.303-2.79-3.021-4.78 0.32 0 0.212 0.588 0 0z"/>
	<path d="m68.64 98.88c1.351 0.033 4.8 6.246 4.8 6.72-1.751 0.1-4.736-4.9-4.8-6.72 0.866 0.021 0.071 2.01 0 0z"/>
	<path d="m75.84 102.24c-0.176-1.098 2.411-3.418 3.36-3.36-0.216 1.93-2.137 2.27-3.36 3.36-0.307-1.91 1.186-1.05 0 0z"/>
	<path d="m77.76 101.28h0.96c-0.208 1.33-1.071 2.192-2.4 2.399 0-1.9 1.591-0.37 1.44-2.4 0.32 0 0.077 1.04 0 0z"/>
	<path d="m124.32 101.28c1.78 0 3.84 1.675 3.84 3.359-1.23-0.52-3.93-1.91-3.84-3.36 0.48 0-0.04 0.68 0 0z"/>
	<path d="m108 102.72c1.602 0 5.737 4.534 6.72 6.24-0.844 0.188-2.52-1.066-2.894-1.746-0.77-1.39-3.55-2.15-3.83-4.49 0.32 0 0.13 1.08 0 0z"/>
	<path d="m107.52 103.68c-0.862 2.193-5.017 8.538-7.199 8.641 0.138-2.153 2.023-2.938 2.962-4.639 0.68-1.22 2.36-3.55 4.24-4-0.59 1.49-1.55 0.37 0 0z"/>
	<path d="m58.56 107.52c2.625 1.059 3.712 6.157 6.248 5.529 3.73-0.925 5.845-4.637 9.592-5.529-0.603 2.177-5.824 5.021-7.585 6.015-3.472 1.957 3.11 5.445 3.746 7.906-1.708-0.344-2.433-2.211-3.808-3.106-1.859-1.212-1.056-1.695-3.904-1.723-2.498-0.024-5.031 2.409-7.168 3.389 0-2.06 1.831-2.124 3.504-3.264 0.529-0.359 3.268-2.177 3.695-2.017 0.137-3.2-4.864-4.17-4.32-7.21 1.254 0.5-0.418 2.34 0 0z"/>
	<path d="m100.32 113.28c1.639 0.667 2.85 1.937 3.84 3.359-1.42 0-3.76-1.55-3.84-3.36 1.7 0.7 0.08 1.84 0 0z"/>
	<path d="m78.72 114.72c1.205 0.238-0.087 1.773-0.96 1.44 0-1.16 1.133-0.92 0.96-1.44 1.156 0.23 0.242 0.72 0 0z"/>
	<path d="m152.64 16.8c-1.691 0.875-1.217 1.862-3.22 1.901-1.503 0.029-1.289 0.454-2.717 0.528-1.437 0.075-6.063 2.034-6.063-0.029-0.757 0.429-1.237 1.069-1.439 1.92-1.024-0.649-1.149-0.923-2.4-0.48 0-1.61 5.28-6.012 5.28-3.36 1.65-1.729 3.845-0.312 5.28-1.44-0.064 0.837-0.385 1.557-0.96 2.16 1.508 0.641 1.812-2.229 3.359-2.16 0.272 0.958-0.752 0.962-0.479 1.92 1.542-0.896 2.444-2.536 4.319-2.88-0.05 0.997-1.25 0.709-0.96 1.92 1.176-0.18 0.988-1.632 2.4-1.44-0.049 1.824-1.244 2.851-2.88 3.36-0.27-0.958 0.75-0.962 0.48-1.92-0.84 0.436 0.32 1.117 0 0zm-10.08 1.92c0.48 0.16 0.641 0 0.48-0.48-0.48-0.16-0.64 0-0.48 0.48 0.16 0 0-0.16 0 0z"/>
	<path d="m174.72 32.4c-6.433-2.065-6.955-15.738-10.199-21.24-1.977-3.351-17.82 0.684-21.832 1.068-2.408 0.23-4.473-0.054-5.881 1.82-0.516 0.526-1.019 1.063-1.509 1.611-0.843 1.232-0.945 0.564-1.379 1.141-0.117 1.013-0.548 1.861-1.293 2.546-1.69 1.565-1.778-0.146-2.612-1.521-1.288-2.122-1.277-5.16-1.665-7.775-0.549-3.702-0.725-5.611-4.873-5.253-2.276 0.196-5.643 1.103-5.543 3.99 0.07 2.036 1.61 3.796 1.434 5.832-0.196 2.26-3.062 0.786-4.562 0.413-0.849-0.211-5.002-0.733-5.375-1.372-0.471-0.808-9.665-1.403-11.207-1.528-8.147-0.664-16.868-1.354-25.14 0.267-4.527 0.887-7.08 3.022-8.83 7.385-0.82 2.043-0.396 1.236-0.413 2.777-0.016 1.46-1.839 1.967-2.614 3.146-1.371 2.084-4.356 1.329-6.717 1.587-1.802 0.197-2.46 1.34-3.921 1.681-2.379 0.555 0.855 4.912 0.772 6.066-2.983-0.575-5.047-3.119-8.16-3.36-1.528-2.092-4.926-2.642-6.902-3.97-1.515-1.019-4.287-2.351-5.884-2.828-2.427-0.725-4.062-2.571-6.564-3.084-1.363-0.279-4.778 0.692-4.649 2.682-1.708-0.563-4.115 2.864-5.76 3.36-0.618 1.146-7.308 7.114-8.16 6.72-0.309 2.4-0.048 5.07 0.798 7.842 0.882 2.89 1.076 5.381 1.599 8.344 0.415 2.347 3.203 3.762 3.354 5.184 0.239 2.262 1.154 5.601 1.367 8.31 0.06 0.767 1.484 5.215 2.483 4.88 0.299 3.085 0.928 6.197 1.135 9.226 0.221 3.229 0.428 6.465 0.873 9.646 0.393 2.812 1.832 4.86 1.832 7.701 0 4.983 2.865 10.625 5.28 14.946 1.74 0.84 1.647 1.489 3.634 2.024 1.543 0.415 2.978 1.108 4.446 1.725 2.947 1.237 6.074 1.545 8.904 3.028 8.411 4.409 18.565 7.85 28.376 10.743 8.885 2.603 15.598-1.134 23.85-3.87 1.344-0.446 9.626-2.623 9.51-4.29 2.433-0.074 5.27-1.623 7.21-2.69 2.232-1.228 4.663-1.579 6.671-2.809 2.735-1.674 7.487-5.165 10.84-5.061 2.288-2.002 5.066-2.83 7.621-4.26 1.244-0.696 1.863-1.061 3.059-1.62 0.938-0.438 2.974-0.947 3.852-1.909 0.909-0.996 4.024-2.482 5.628-2.291 0.936-1.265 4.071-2.174 5.394-2.575 4.835-1.467 9.709-4.751 12.857-8.406 2.586-3.003 2.881-8.425 3.59-12.059 0.166-0.856 0.691-3.61 1.439-4.08-0.204-3.121 0.286-6.189 0.478-9.294 0.187-3.008 1.159-5.551 1.192-8.513 0.03-2.705 1.164-4.267 1.605-6.715 0.9-5.025 1.95-10.154 0.56-15.307-1.27-0.408 0.47 1.733 0 0zm-4.8 0.24c0.761 0.165 1.236-0.171 0.96 0.96-0.83 0.186-1.15-0.134-0.96-0.96 0 0-0.19 0.826 0 0zm0.96 5.28c-0.231 1.462-2.688 2.142-4.32 2.4 0.33-0.801 3.46-2.578 4.32-2.4 0 0-1.11-0.23 0 0zm-37.44-18.24c1.378 0.333 3.7-3.235 4.381-4.259 1.562-2.353 10.439-2.315 13.626-2.805 2.445-0.375 11.482-2.547 12.11 0.107 0.585 2.478 1.69 4.849 2.691 7.268 1.066 2.578 1.475 4.538 2.272 7.135 0.318 1.033 2.011 3.785 1.08 4.716-0.393 0.394-1.327 1.163-1.602 1.758-0.59 1.277-2.825 6.33-4.32 6.24 0.845-3.181 4.324-5.825 4.642-8.254 0.465-3.553-1.458-6.813-2.613-9.99-0.981-2.696-2.094-10.222-5.156-4.924-0.788 1.363-1.713 2.252-2.33 3.549-0.616 1.294-2.78 2.917-2.702 4.259-0.918-0.104-4.269 5.695-4.888 6.58-0.688 0.984-3.256 3.81-3.752 5.9-4.267 2.914-5.532 7.619-3.359 12-1.458 0.498-1.924-2.096-2.289-3.052-0.957-2.514-2.439-1.29-4.432-1.748v-3.2c0-2.225 2.725-0.17 2.4-2.56-0.885-0.302-1.41 1.116-1.979 0.059-0.903-1.68-0.367-5.299-0.404-7.619-0.05-3.113-0.291-4.961-2.246-7.371-0.575-0.76-1.272-1.383-2.092-1.869 0.05-0.997 1.25-0.709 0.96-1.92 1.27 0.307 0.31 1.267 0 0zm32.64 20.64c-0.241 0.241 0.226 0.652-0.48 0.48-0.17-0.706 0.24-0.238 0.48-0.48zm-3.36-1.92c0.826 3.009-8.038 5.565-10.56 6.72-0.051-0.972-0.531-1.612-1.44-1.92 2.228 2.164-1.684 2.816-2.618 3.302-1.858 0.966-3.289 3.144-4.43 0.746-2.606-5.479 3.518-6.801 4.648-11.728 0.741-0.268 3.734-4.327 3.84-5.28 1.923-0.913 2.904-4.013 4.37-5.47 0.944-0.939 1.175-3.383 2.375-4.064 0.699-0.396 3.389-4.429 3.335-5.346 0.983 0.146 1.92 2.633 1.92 3.44 0 2.813 1.88 5.591 2.694 8.345 0.567 1.915 1.211 2.701 0.453 4.322-0.542 1.159-1.33 1.614-1.852 2.789-0.33 0.747-1.79 4.504-2.73 4.144 0.36 1.323 0.78 0.297 0 0zm0.48 3.84c-2.007 0.101-4.219 1.66-6.24 2.4 0.54-1.237 6.47-3.266 6.24-2.4 0 0 0.23-0.867 0 0zm-6.72 2.4c-0.171 1.51-4.563 2.34-5.76 2.88-0.05-1.481 4.58-2.977 5.76-2.88-0.1 0.861-2.27-0.187 0 0zm-7.2 3.36c0.283-0.182 0.02-0.761 0.96-0.48-0.08 0.549-0.4 0.709-0.96 0.48 0 0 0.42-0.055 0 0zm-3.84 1.44c-0.171 0.63-0.521 1.079-1.44 0.96 0.09-0.707 1.05-0.55 1.44-0.96zm18.24-8.16c0.242 0.242 0.652-0.226 0.48 0.48-0.71 0.172-0.24-0.239-0.48-0.48zm-24 9.6c-0.012-0.609 0.239-3.146 0.96-2.88-0.016 0.478-0.139 0.921-0.371 1.332 0.1 0.238 1.73 1.688-0.59 1.548-0.02-1.267 0.68 0.041 0 0zm0.48 0.96c-0.241 0.241 0.226 0.652-0.48 0.48-0.17-0.706 0.24-0.238 0.48-0.48zm0.96-0.96c1.074 0.294 1.392-0.628 2.4-0.48-0.701 0.644-1.502 1.124-2.4 1.44v-0.96c1.32 0.363 0 0 0 0zm-2.88 1.92c0.283-0.182 0.02-0.761 0.96-0.48-0.08 0.55-0.4 0.71-0.96 0.48 0 0 0.42-0.055 0 0zm-1.44 0c0.659 0.461 0.979 1.102 0.96 1.92-0.957-0.272-0.962 0.751-1.92 0.48 0.28-1.101 1.32-1 0.96-2.4 0.63 0.328 0.38 1.503 0 0zm-8.64-35.04c-0.291 1.311 1.251 1.09 0.96 2.4-1.011-1.333-4.141-0.253-4.32-2.4h3.36c-0.32 1.441 0 0 0 0zm-3.6-0.96c-0.805 0.522-1.685 0.843-2.64 0.96 0.007-2.032 3.103-1.374 4.32-1.44 0.19 0.906-1.33 0.367-1.68 0.48-0.65 0.554 0.54-0.175 0 0zm1.68-9.6c1.165 0.435-0.12 3.32 0.96 3.84-1.87 0.267-0.58-2.619-0.96-3.84zm-3.84-0.48c2.335-0.303 2.446 1.696 2.399 4.32-3.38 0.628-2.4-1.702-2.4-4.32 0.42-0.055 0 0 0 0zm2.88 5.76c-0.428 0.849-1.713 0.48-2.88 0.48 0.1-1.049 2.33-0.322 2.88-0.48 0 0-0.87 0.251 0 0zm-3.84 0.48c0.241 0.241 0.652-0.225 0.479 0.48-0.7 0.172-0.24-0.238-0.48-0.48zm0.48 1.44c0.859-0.204 5.122-0.722 5.28 0.48-2.305-0.445-4.009 1.067-6.24 0.96l0.96-1.44c1.16-0.276 0.03 0.828 0 0zm-1.92-6.72c1.575 0.185 0.763 2.757 0.96 4.32-1.58-0.185-0.76-2.757-0.96-4.32zm-30.72 5.76c5.648 0.544 12.606 0.283 18 1.92 2.437 0.744 5.03 0.596 7.544 1.423 3.719 1.225 8.034 2.793 11.655 3.538 5.613 1.154 8.143 4.312 9.128 9.562 0.214 1.141-0.646 9.994-0.149 10.339 1.365 0.95-0.209 5.857-0.259 7.512-0.055 1.81 0.416 3.148 0.712 4.844 0.339 1.945-5.163 2.633-6.791 3.103-0.826-2.232-0.668-4.877-0.48-7.2 0.023-0.293 0.251-3.922 0.011-3.67 1.138-1.193-0.144-7.412 0.47-9.53 1.204-4.149-2.398-9.428-5.949-10.589-2.934-0.958-5.997-1.908-8.896-3.019-3.017-1.155-6.792-2.235-9.577-2.597-0.794-0.104-8.125-1.374-8.623-2.03-0.709-0.933-6.179-1.406-7.439-1.427-0.61-0.01-4.657-0.44-5.044-0.993-0.93-1.326-4.426 0.472-5.832-1.186 3.847 0.26 7.693-0.37 11.528 0 0.532 0.051-3.736-0.36 0 0zm30.72 47.04c-2.982 0.092-8.492 2.371-10.56 4.32-2.853 0.963-6.077 2.557-9.12 2.88 1.433-2.561 7.133-2.7 9.234-4.017 3.115-1.953 7.201-3.792 10.925-4.143 0.29 0.77-0.78 0.19-0.48 0.96-2.72 0.083-0.3-0.776 0 0zm-33.12 9.12c-0.29-0.964 2.087-0.483 2.16-0.479 1.084-0.248 2.403-5.111 2.718-6.114 0.763-2.427 2.833-4.751 3.182-7.266 0.37-2.677-4.693-3.502-6.793-3.611-2.396-0.124-3.287-1.329-5.149-1.265-1.849 0.063-3.531-0.123-5.239-0.464-1.076-0.215-2.456-0.551-3.36-0.96-3.261-1.472-4.077 1.025-5.281 3.519-0.67 1.388-1.418 2.581-1.977 3.623-0.575 1.07-1.249 3.227-2.066 4.366-0.906 1.264-1.716 3.061-1.716 4.492 0 1.073 3.742 1.93 4.79 1.805 2.263-0.27 17.195 4.238 17.291 3.795-1.444-0.229-2.133 0.474-3.36 0.96 0.124-2.058-6.136-2.076-7.68-2.4-2.625-0.548-4.927-2.247-7.438-1.943-1.163 0.141-4.45-0.638-5.042-1.656 0.495-1.229 0.696-2.635 1.488-3.732 0.768-1.064 0.991-3.104 2.352-3.708 1.57-2.79 1.996-8.343 4.8-11.04 4.477 1.832 10.266 2.049 14.4 2.88 2.403 0.484 5.23 1.052 7.669 1.832 2.171 0.694 4.654-0.181 3.851 2.968-0.022 0.091-1.824 2.932-1.92 2.88-0.603 1.596-0.721 5.114-2.399 6.24-0.373 0.896-1.091 2.781-0.96 3.84 2.321-0.478 5.294-7.954 5.279-10.08 0.218 0.112 2.358-3.875 2.4-4.32 2.372 1.532 3.198 4.44 5.167 6.354 2.084 2.027 3.11 3.294 2.033-0.593 1.558 0.381 2.644 1.62 4.32 1.68-0.379 1.059-5.57 3.838-6.721 3.6 1.434-2.344-0.855-4.091-2.88-5.76 0.616-2.773-3.648-3.337-3.359 0.48-1.671 1.496-2.881 5.625-2.881 7.785 0 0.949-7.036 3.665-7.68 2.292-0.344-1.144 0.66 1.406 0 0zm1.92 1.44c-0.328 0.632-1.024 0.896-1.92 0.96 0.131-0.829 0.828-1.093 1.92-0.96zm-3.84-11.04c-0.548-2.263 2.131-1.292 2.88-1.92 0.104 0.784-0.215 1.264-0.96 1.44v-0.96l-1.92 1.44c-0.307-1.267 0.955-0.165 0 0zm1.44 12.479c-0.743 0.07-6.56 2.68-6.72 0.961 1.087 0.159 6.568-1.957 6.72-0.961-1.608 0.153-0.197-1.289 0 0zm-0.48-17.279v-0.96h0.48c0.274 0.921-0.379 0.727-0.48 0.96zm3.36 4.32c1.136 0.433 0.96-1.857 0.96-2.4 0-2.087 0.984-2.746 3.359-2.4-0.791 0.888-1.591 1.768-2.399 2.64 0.545 0.786 0.62 1.604 0.224 2.456-0.727 1.676-0.771 1.69-1.904 1.624-0.824 0.628 0.564 1.124 0.24 1.92 0.172-0.058-1.897-1.749-1.92-1.92 0.276-1.08 1.833-0.372 1.44-1.92 0.777 0.296 0.381 1.501 0 0zm-1.92-3.36c-0.311-1.271 0.169-1.75 1.44-1.44-0.584 0.551-0.185 1.737-1.44 1.44 0 0 1.258 0.298 0 0zm-2.88 12.48h-0.96c-0.294-0.771 0.774-0.188 0.48-0.96 0.549 0.076 0.709 0.396 0.48 0.96 0 0-0.055-0.425 0 0zm-0.96-3.84c0.104-0.536 0.424-0.855 0.96-0.96-0.105 0.535-0.424 0.856-0.96 0.96zm-0.48-5.28c-0.205 0.493-0.524 0.893-0.96 1.2 0.271 0.25 0.59 0.33 0.96 0.24-0.104 0.536-0.424 0.855-0.96 0.96v-0.96c-0.026-0.01-1.938 0.824-1.44-0.48 2.402 0.819 0.913-4.387 2.4-3.84 0.195 0.866-0.724 2.181 0 2.88-0.016 0.704-0.873-0.843 0 0zm-5.76 0.96c-1.506-0.575-0.106 2.99-1.92 2.88 0.888-1.096 0.769-3.797-0.24-4.8-0.169 1.172-1.076 5.333-2.64 4.8 0.076-1.38 1.728-7.049 2.88-7.68 0.683 0.413 1.039 4.063 2.228 1.748 0.488-0.949 0.141-3.03 1.612-3.188-0.502 2.128-1.569 4.069-1.92 6.24-0.777-0.296 0.379-2.341 0 0zm1.44 2.88c-0.104 0.536-0.424 0.856-0.96 0.96-0.319-1.304 0.333-0.59 0.96-0.96-0.104 0.536 0 0 0 0zm-6.72-3.84c-0.581 0.556-1.38 4.459-1.44 5.28-0.775-0.759-1.162-1.278-2.4-0.96-0.114-1.011 3.189-3.826 1.171-3.811-0.009 0 1.222-7.321 4.109-4.349 0.041 0.681-4.344 3.432-1.44 3.84-0.654 0.626-1.618-0.228 0 0zm7.68 0c1.1 0.171 0.299 2.082-0.48 1.92-0.24-1.04 0.268-1.332 0.48-1.92zm0-0.96c0.104-0.536 0.424-0.856 0.96-0.96-0.104 0.536-0.424 0.856-0.96 0.96zm0.48 9.6c0.242 0.241 0.652-0.226 0.48 0.479-0.705 0.173-0.239-0.238-0.48-0.479zm0.96-11.52v-0.96h0.48c0.275 0.921-0.379 0.727-0.48 0.96zm-2.4 15.36c-0.241 0.241 0.225 0.652-0.48 0.479-0.172-0.705 0.239-0.238 0.48-0.479zm-0.96 1.92c0.147 0.946-1.317 0.282-1.92 0.48-0.147-0.947 1.318-0.282 1.92-0.48zm-2.4-1.92c-0.146-0.946 1.318-0.282 1.92-0.48 0.147 0.947-1.318 0.283-1.92 0.48zm0 1.92c-0.955 1.423-8.011 0.038-8.64-1.44 2.873-0.209 5.471 1.872 8.64 1.44-0.565 0.842-2.408 0.328 0 0zm-1.44-2.4c0.283-0.182 0.02-0.76 0.96-0.479-0.076 0.549-0.396 0.708-0.96 0.479 0 0 0.425-0.055 0 0zm-9.12 0.48h1.44c0.358 1.367-1.633-0.106-1.44 0zm-0.48-2.4v-0.96c0.596 0.149 1.076 0.469 1.44 0.96h-1.44zm-12.48-1.92c0.158-0.429-8.873-3.209-9.766-3.354-1.929-0.312-10.042-1.764-10.394-3.846-1.074-0.294-1.392 0.628-2.4 0.48 0.548-1.505 6.183-4.26 7.68-4.32-1.196 1.898-3.721 2.129-5.28 3.6-0.071 0.915 3.473-1.191 3.725-1.375 2.098-1.527 3.737-0.036 5.708-0.259 1.126-0.127 5.015 0.766 6.407 1.394 1.107 0.5 7.76 0.193 8.017 1.197 0.439 1.719 6.615-1.296 5.123 2.823-0.537 1.481-1.557 2.223-0.606 3.726 0.208 0.329 1.864 2.011 1.866 2.334-3.325-1.007-6.585-2.154-10.08-2.4 0.372-1.013 3.887 0.273 0 0zm7.68 3.36c0.283-0.183 0.019-0.762 0.96-0.48-0.076 0.549-0.396 0.71-0.96 0.48 0 0 0.425-0.055 0 0zm-1.92-0.48c0.283-0.182 0.02-0.76 0.96-0.479-0.076 0.549-0.396 0.708-0.96 0.479 0 0 0.425-0.055 0 0zm-1.44-0.96c-0.242 0.242 0.226 0.652-0.48 0.48-0.172-0.706 0.239-0.239 0.48-0.48zm-2.4 0c0.294-0.16 0.431-0.773 1.44-0.479 0.227 0.864-1.103 0.38-1.44 0.479 0 0 0.495-0.145 0 0zm-0.96-0.48c-0.863-0.257-1.978-0.262-2.4-0.96 1.192-0.072 1.981 0.259 2.4 0.96zm-17.76-5.28c-1.196 0.056-8.02-1.51-7.68-2.4 5.014 0.876 9.551 2.532 13.92 3.84 0.713 0.218 7.638 1.413 8.16 2.88-1.772-0.278-14.735-3.443-14.4-4.32-3.022 0.142-0.297 0.777 0 0zm-10.56-7.68c0.376-0.987-6.1-3.02-7.2-3.36 0.883-2.155 4.5-3.711 6.176-5.044 1.114-0.887 1.082-0.859 2.517-1.623 2.359-1.256 3.951 0.266 6.48 1.644 3.108 1.693 16.323 5.047 15.068 9.344-2.979-0.505-7.158-1.979-9.543-1.983-2.918-0.004-5.192 3.845-7.736 3.903-0.249-1.459-3.992-2.81-5.762-2.881 0.296-0.777 2.461 0.099 0 0zm8.16-9.12c0.242-0.242-0.225-0.652 0.48-0.48 0.172 0.705-0.238 0.238-0.48 0.48zm12 0.96c0.331 1.759 1.453 0.335 2.4 1.92-1.484-0.102-2.99-0.612-3.84-1.92-1.693 0.207-2.722-0.562-4.102-1.338-1.835-1.033-7.14-2.159-7.418-3.941 3.37 2.24 8.905 4.09 12.96 5.279 0 0-3.217-0.943 0 0zm-1.92-1.92c0.242-0.242-0.225-0.652 0.48-0.48 0.173 0.705-0.238 0.238-0.48 0.48zm8.64-2.88c0.564 0.229 0.884 0.07 0.96-0.48 2.521 0.331-0.497 2.9-1.92 2.88-0.292-1.31 1.252-1.089 0.96-2.4 0.425-0.054 0.321 1.441 0 0zm12.72 0c1.103-1.911-3.803-2.449-0.096-3.665 3.711-1.217 0.73 2.17 0.815 3.185 1.074 0.294 1.392-0.628 2.4-0.48 0.412 4.574-5.007 0.827-7.2 0.96-0.034-3.267 3.821 0.078 4.081 0 0.775-1.343-0.801 0.241 0 0zm-1.2-5.28c0.133-1.052 1.92-0.123 1.92-1.31 0-0.82-0.482-3.01 0.48-3.01 0.821 0 1.452 5.19-2.4 4.32 0.108-0.852 1.447 0.327 0 0zm4.32 11.76c-0.149 3.792-4.029-0.406-4.32-2.16-0.881-0.552-3.807 0-4.86 0-2.54 0 0.085-2.906 1.104-3.276 1.746-0.636 1.907-0.336 3.376 0.776 1.974 1.494-0.06 0.914 0.38 2.26 2.218 0.683 3.205 0.432 4.32 2.4-0.03 0.77-0.318-0.562 0 0zm-1.92 5.04c-1.94 0-3.98 0.441-4.782-1.818-0.66-1.861 2.528-1.681 3.592-1.494 2.758 0.488 0.878 1.89 1.19 3.312 0 0-0.248-1.128 0 0zm-12 3.84v-0.96c1.639 0.091 5.86-0.866 5.76 1.92-1.985 0.016-3.795-0.847-5.76-0.96 0 0 2.118 0.122 0 0zm3.36 1.44c-0.242 0.242 0.225 0.652-0.48 0.48-0.172-0.705 0.238-0.238 0.48-0.48zm1.44-17.04c-0.161 1.915-2.479 1.784-3.84 1.68 0.127-1.738 3.712-3.88 3.84-1.68-0.143 1.697-0.022-0.378 0 0zm0.24 8.4c0.731-2.325-0.759-1.487-0.72-2.16-0.509-1.698 4.137-0.636 4.805-0.085 1.54 1.266-0.948 1.603-1.644 1.855-0.629 0.216-0.883 0.667-0.762 1.35-1.522-0.026-2.755-0.742-4.32-0.48-0.183-1.25 0.429-1.871 1.44-2.4-0.378 1.313-0.144 2.12 1.201 1.92 0.191-0.609 0 0 0 0zm2.16 2.88c-1.106 3.21-4.486 2.4-7.2 2.4 0.276-3.016 5.846-6.199 7.2-2.4-0.369 1.071-0.71-1.994 0 0zm0.96 7.68c-1.169-0.431-2.088-1.111-3.84-0.96 0.736-0.986 4.128-0.659 3.84 0.96zm-1.44-1.92c0.186-1.296-0.637-1.767-0.96-2.88 0.789-1.768 2.531-2.181 4.32-1.92l0.96 1.44c-0.608 0.858-1.149 1.757-1.623 2.697-1.609 2.542-1.066 0.125-2.697 0.663 0.214-1.494 1.075-0.354 0 0zm-0.96-21.6c-0.644-0.166-3.214-0.327-3.36-0.96 2.024 0.16 4.277-0.443 6.24 0.24 0.089 1.301-2.324 0.863-2.88 0.72-0.436-0.113 1.014 0.262 0 0zm-0.96 0.96c0.562 1.935 4.189-1.848 3.36 1.44-1.355-0.051-4.036 1.882-3.84-0.48-1.806 0.309-2.123 1.992-4.32 1.92 0.818-2.15 2.503-3.13 4.8-2.88 0.162 0.558-2.873-0.313 0 0zm-2.4 5.76c-0.703 3.248 1.639 4.32-3.2 4.32-2.997 0 0.633-4.981 3.2-4.32-0.088 0.408-2.37-0.61 0 0zm-4.8 1.44c-0.166 1.492-1.384 2.043-2.4 2.88-0.403-1.784 0.438-3.477 2.4-2.88-0.176 1.584 0 0 0 0zm-2.4 4.32c0.862-0.473 0.81-1.745 1.92-1.92 0.903 0.875 0.137 1.909 0 2.88 0.93 0.21 2.314-1.785 4.32-1.44 1.429 1.375-1.065 3.036-1.92 3.36 0.125-1.509-0.962-1.73-1.62-0.66-1.18 1.918 1.62 0.751 1.62 2.07 0 1.238 0.579 2.781-1.172 2.917-1.445 0.111-3.19-0.136-2.667-1.927 0.732 0.486 1.532 0.807 2.4 0.96-1.299-1.507-1.569-3.408-0.96-5.28-1.411 0.389-0.73 2.859-1.2 3.84-1.623-0.303-0.445-3.761-0.721-4.8 0.827-0.453 0.387 1.453 0 0zm3.84 2.4c-0.242 0.242 0.225 0.652-0.48 0.48-0.173-0.705 0.238-0.239 0.48-0.48zm2.4 6.24c-0.324 1.155-8.499-0.629-8.16-1.44 2.716 0.506 5.407 1.15 8.16 1.44-0.238 0.849-2.895-0.305 0 0zm-7.2-11.04c-0.242-0.242-0.652 0.225-0.48-0.48 0.705-0.172 0.238 0.238 0.48 0.48zm-2.4-1.92c0.416-0.704 0.73-1.509 1.92-1.44 0.13 1.25-0.668 1.572-1.92 1.44zm0.96 12c-1.114-0.006-1.434-0.807-2.88-0.48 0.46-1.14 2.681-0.209 2.88 0.48zm-4.32-1.44c-0.242 0.242 0.225 0.652-0.48 0.48-0.173-0.705 0.238-0.238 0.48-0.48zm-0.96 0.48c-1.191 0.072-1.981-0.259-2.4-0.96 1.192-0.072 1.981 0.258 2.4 0.96zm23.04 14.4c-1.192 0.072-1.981-0.259-2.4-0.96 1.192-0.072 1.981 0.259 2.4 0.96zm-1.44-3.36c0.981 0.168 1.667-0.392 1.44 0.96-0.596-0.149-1.076-0.469-1.44-0.96 0 0 0.093 0.708 0 0zm27.84-20.16c0.77 0.294 0.189-0.774 0.96-0.48 0.045 0.754-0.791 0.529-0.48 1.44-0.55-0.076-0.71-0.396-0.48-0.96 0.777 0.296 0.055 0.425 0 0zm4.8-6.72c-0.312 1.723-1.607 5.505-2.88 5.76 0.726-1.986 1.355-4.206 2.88-5.76-0.392 2.168-1.427 1.454 0 0zm0.48-1.92c-0.011-0.031-1.566 1.824-1.92 1.92-0.202-1.407 0.512-2.122 1.92-1.92 0.242 0.722-1.495-0.215 0 0zm-3.36 4.8c-0.332-0.972 0.521-0.759 0.48-1.44 1.127 0.098 0.119 1.539-0.48 1.44zm0 3.36v0.96h-0.48c-0.274-0.92 0.38-0.727 0.48-0.96zm-1.44-0.48c0.104-0.536 0.424-0.856 0.96-0.96-0.104 0.536-0.424 0.856-0.96 0.96zm11.52 16.8c0.241 0.241 0.652-0.225 0.479 0.48-0.7 0.172-0.24-0.238-0.48-0.48zm-0.48-1.92c0.241-0.241-0.226-0.652 0.48-0.48 0.17 0.705-0.24 0.238-0.48 0.48zm-0.96-2.4c-0.241 0.242 0.226 0.652-0.479 0.48-0.17-0.705 0.24-0.239 0.48-0.48zm-3.84 5.28c0.101 0.234 0.755 0.039 0.48 0.96h-0.48v-0.96zm-0.481 0.96c-0.241 0.241 0.225 0.651-0.479 0.479-0.172-0.703 0.238-0.238 0.479-0.479zm-7.199 4.32c3.122 0.229 6.954-2.004 10.081-2.88 0.126 2.325-10.074 2.844-10.081 2.88 1.381 0.101-0.193 0.913 0 0zm8.64-4.32c0.294-1.074-0.628-1.392-0.479-2.4 0.834-0.207 0.65-0.021 1.156-0.497-0.098 0.341-0.323 0.506-0.677 0.497-0.248-1.453 1.017-1.989 0.96-3.36 1.2 0.094 0.017 0.997 0 1.44l1.44-0.96c-0.106 1.252 0.258 0.763 0.96 0.48-0.153 0.868-0.474 1.667-0.96 2.4-0.3-0.071-0.54-0.231-0.721-0.48-0.648 0.883-0.697 2.234-1.679 2.88 0.362-1.323 0.917-0.603 0 0zm3.84-3.36c-0.241 0.242 0.226 0.652-0.479 0.48-0.17-0.705 0.24-0.239 0.48-0.48zm8.64-2.88c0.241-0.242-0.226-0.652 0.479-0.48 0.17 0.705-0.24 0.239-0.48 0.48zm4.32-0.48c0.104-0.536 0.425-0.856 0.96-0.96-0.1 0.536-0.42 0.856-0.96 0.96zm1.92 0c0.437-0.844 1.076-1.484 1.92-1.92-0.44 0.844-1.08 1.484-1.92 1.92zm3.36-2.88c0.104-0.536 0.425-0.856 0.96-0.96-0.1 0.536-0.42 0.856-0.96 0.96zm0.48-1.92c-2.438 0.22-3.183 2.998-5.688 2.872-2.503-0.127-5.082 0.747-7.837 0.334-2.249-0.337-2.971-2.528-4.714-2.726 0.354-1.075-2.117-3.84-2.775-3.84-7.499 0-2.779-19.522 1.815-18.24-1.007 1.688-2.048 2.288-2.915 4.045-0.86 1.743-1.027 2.478-1.191 4.52-0.223 2.769-0.619 6.489 1.466 8.714 0.809-2.466-2.28-5.075-0.72-7.44-0.207-1.324 0.037-2.476 0.458-3.718 0.396-1.168 2-3.215 1.942-4.202 3.476-1.989 5.357-2.789 9.301-2.911 2.3-0.071 5.205 0.442 7.019 1.471 1.643 2.203 3.1 2.942 4.354 5.485 1.57 3.183 1.914 6.707 0.928 10.405-0.468 1.756-2.933 4.582-4.322 5.71-1.57 0.044-2.688 0.884-4.08 1.44-1.095 0.225-3.859-0.763-4.56 0.48 1.616 2.123 6.226-0.96 7.965-0.96 0.566 0 2.438-1.84 2.914-2.402 0.632-0.746 0.976-1.703 1.712-2.368 1.217-1.1 0.867-2.19 1.81-3.63 0.491-6.728-1.782-10.04-6.24-14.64-0.572-0.1-4.858-1.317-5.2-1.708-1.151-1.32-5.494 1.129-6.32-0.691 4.238-0.82 8.508-0.16 12.48 1.44-0.303 1.504 3.284 3.119 3.954 4.514 1.693 3.524 1.969 6.598 1.755 10.507-0.1 1.841-1.026 3.234-1.188 4.507-0.17 1.422-2.35 1.371-2.11 3.032-2.28 0.205-0.2-1.391 0 0zm-38.4-31.2c3.923-0.341 6.396 3.169 9.461 3.962 2.472 0.639 4.34 2.772 6.634 4.263 1.386 0.428 1.558 1.063 0.514 1.905-1.489 1.497-1.659-0.909-2.543-1.636-1.257-1.035-2.545-2.879-4.466-2.734 0.043-1.317-2.5-1.766-3.265-2.255-0.992-0.635-2.38-0.924-2.975-2.064-1.091-0.128-2.865-0.161-3.36-1.441 2.628-0.228 0.446 1.154 0 0zm2.88 2.4v0.96c-0.826 0.187-1.146-0.133-0.96-0.96h0.96zm-6.24-3.84c-0.238-1.832 1.989-6.168 4.717-3.094 1.214 1.368 5.848-0.105 7.201 1.44 0.329 0.375 5.378 0.179 5.423 0.934 0 0.014 6.529 1.188 6.658 1.2-1.018 2.071-4.066 1.492-5.279 3.36-1.297-0.186-1.768 0.638-2.881 0.96-0.048-0.79-2.061-1.92-2.64-1.92-1.374 0-5.969-1.751-6.96-2.88-2.011-0.585-4.259 0.09-6.24 0-0.055-0.425 1.478 0.067 0 0zm2.88 2.4c-0.242 0.242 0.225 0.652-0.48 0.48-0.172-0.705 0.238-0.238 0.48-0.48zm40.32 4.32c2.058-0.339 3.6 2.912 3.36 4.8-2.242-0.189-4.348-2.657-6.708-3.068-1.628-0.284-3.013-1.333-4.578-1.246-0.827 0.046-2.071 0.08-2.634-0.006-0.352-1.204-5.598-0.156-6.414 0.162-1.469 0.572-2.615 0.865-3.904 1.64-1.868 1.122-4.291-1.237-5.522-2.762 4.612-0.832 8.271-6.382 13.052-4.789 1.68 0.564 13.69 4.306 13.34 5.269 0 0 0.37-1.012 0 0zm2.88 24.96c-0.038 0.865-1.33 2.236-2.399 2.4-0.06-1.615 1.62-1.445 2.4-2.4 0 0-0.72 0.881 0 0zm-2.88 1.44c0.104-0.536 0.425-0.856 0.96-0.96-0.1 0.536-0.42 0.856-0.96 0.96zm1.92-2.4c0.564-0.23 0.884-0.07 0.96 0.48-0.91-0.311-0.686 0.525-1.439 0.48-0.3-0.771 0.78-0.19 0.48-0.96 0.43 0.054 0.3 0.777 0 0zm-0.48-0.48c0.241-0.242-0.226-0.652 0.479-0.48 0.17 0.705-0.24 0.239-0.48 0.48zm0.96-0.48c0.241-0.242-0.226-0.652 0.479-0.48 0.17 0.705-0.24 0.239-0.48 0.48zm0.96 3.36c-0.098 1.272-1.074 1.592-2.4 1.92 0.66-0.891 1.1-1.881 2.4-1.92 0 0-1.4 0.042 0 0zm-0.48-6.72v-0.96h0.48c0.28 0.921-0.38 0.726-0.48 0.96zm0-2.64c-0.199-0.548 0.827-3.924-0.479-4.32-0.023-3.427-1.74-5.878-3.841-8.4 2.025-0.511 4.786 2.306 4.911 3.964 0.251 3.32 0.459 6.623 0.369 9.956-0.87 0.121-0.22-1.169-0.96-1.2-0.28-0.755 0.69 0.029 0 0zm-20.64-14.64c0.563-0.23 0.884-0.07 0.96 0.48-0.91-0.311-0.686 0.525-1.44 0.48-0.29-0.77 0.78-0.189 0.48-0.96 0.42 0.055 0.3 0.777 0 0zm-1.92 1.44c-0.241 0.241 0.226 0.652-0.48 0.48-0.17-0.705 0.24-0.238 0.48-0.48zm-20.16-7.68h0.96c0.444 1.325-1.231-0.121-0.96 0zm43.68 31.68c3.439 0.46 6.28-1.072 9.601-1.44-1.332 3.38-10.974 2.376-13.92 4.32 0.65-1.916 3.5-1.122 4.32-2.88 4.25 0.569-0.76 1.638 0 0zm-58.08-40.32c1.529-2.068 7.53-1.835 9.6-1.44 2.68 0.512 5.817 0.569 8.4 1.44 6.288 2.125 12.93 1.926 19.026 3.872 7.002 2.235 13.331 3.607 19.632 6.011 4.505 1.719 3.396 10.214 3.422 13.964 0.021 3.203-0.042 6.407-0.137 9.608-0.021 0.742 0.388 6.098-0.903 5.425-1.695-0.802 0.2-8.849 0.124-10.456-0.262-5.527 1.064-11.699-2.528-16.18-1.944-2.426-9.676-4.443-11.943-5.096-3.97-1.143-8.021-2.049-12.622-3.054-4.554-0.994-8.861-2.133-13.35-2.654-1.04-0.12-6.397-0.27-7.124-1.218-1.032-1.348-7.281-0.58-8.476-0.222-1.26 0.379-1.877 1.558-3.12 1.92-0.079 1.085-1.294 4.852-2.4 5.28 0.083-2.685 1.753-4.691 2.402-7.2 0.362-0.489-0.658 2.542 0 0zm-2.16 8.64c4.302 0 6.545 2.379 10.87 3.976 2.615 0.965 4.629 3.773 7.185 4.372 2.207 0.517 5.512 3.671 6.906 5.572 0.801-4.92-8.501-4.973-9.36-8.64 0.728-0.479 1.527-0.64 2.4-0.48 0.227 0.865-1.103 0.381-1.44 0.48 0.296 1.6 2.479 1.414 3.6 1.92 0.888-1.524-2.344-1.436-1.68-3.36-0.851 0.043-2.899-0.784-3.521-0.162-0.568 0.567-1.985 1.286-2.238-0.318 1.159 0.173 1.131-0.743 1.92-1.2-1.036-0.991-2.661-0.711-3.84-0.24-0.364 0.988 1.324-0.028 0.96 0.96-1.074 0.294-1.391-0.628-2.4-0.48 0.364-0.491 0.844-0.811 1.44-0.96 0.097-1.61-1.293-1.44-2.505-1.44-1.351 0 1.288 1.348 1.065 1.92-1.084-1.024-3.894-0.262-3.84-2.4 1.245-0.174 3.307-0.615 4.476-0.484 0.385 0.043 2.355 0.13 2.724 0.004 0.394 0.968-1.038 0.076-0.96 0.72 0.941 1.764 9.831 2.277 9.12 5.28 1.259 0.917 4.284 1.773 5.76 1.68 1.035-0.024-2.358-1.555-1.243-1.317-1.182-0.156-2.367-0.197-3.557-0.123 0.187-0.827-0.133-1.146-0.96-0.96 0.205-0.493 0.525-0.893 0.96-1.2-0.6-0.738-2.158-0.227-1.92-1.68 1.523 0.384 2.925 1.095 2.4 2.88 2.592-1.784 7.812 2.928 8.678 4.762 1.331 2.816-1.299 5.727-4.218 5.741-2.716 0.013-0.842 0.286-1.099 1.977 0.754 0.045 0.53-0.791 1.44-0.48 0.045 0.754-0.791 0.53-0.48 1.44-0.3-0.072-0.54-0.232-0.72-0.48-1.493 2.198-2.29 4.776-3.12 7.2-3.265-1.413-7.214-1.913-10.654-2.257-2.827-0.283-8.113-3.372-9.985 1.297-1.009-0.277-5.051-3.36-2.64-3.36 1.326 0 1.107 2.657 2.388 0.588 1.157-1.868 1.021-0.112 3.132-0.588-0.149-1.179-1.559-3.509-2.396-3.978-1.193-0.668-0.762-2.433-0.97-3.696-0.404-2.458-0.014-3.412 0.733-5.855 0.475-1.553 2.787-1.802 3.591-0.149 0.458 0.941 2.503 1.548 3.493 2.044 1.967 0.985 4.333 2.485 6.176 3.983 1.895 1.541 4.733 2.104 4.733 4.771 0 1.955-2.687 4.341-1.2 5.76 0.835-1.446 3.581-6.004 1.718-7.398-1.287-0.963 0.074-0.761-1.892-1.789-1.229-0.642-2.225-1.606-3.307-2.453-1.693-1.324-3.56-2.245-4.914-3.006-1.438-0.808-5.164-2.475-5.766-4.074 0.386-0.05 2.419 0.751 2.88 0.96-0.125 0.374 3.775 2.43 4.313 2.887 0.812 0.691 3.847 1.595 3.847 2.393 0 0.564 3.425 2.368 4.32 2.4v0.96c0.653-0.079 1.134 0.161 1.44 0.72 0.307 0.559 0.787 0.799 1.44 0.72 0.165 1.428-0.015 2.804-0.543 4.137-2.286 5.77 0.401 2.532 1.392-1.23 0.784-2.975-2.092-4.481-3.918-6.316-1.2-1.206-3.298-1.783-4.674-2.926-1.279-1.062-3.598-2.562-4.794-3.206-3.814-2.051-7.826-5.531-12.902-4.858-0.064-1.192 2.135 0.158 2.156-0.961 0 0-0.019 1.021 0 0zm-1.44 2.4c1.524-1.166 4.163-0.068 5.04 1.44-2.185-0.616-4.492-0.596-6.72-0.96-0.191-0.905 1.326-0.367 1.68-0.48 1.641-1.255-0.545 0.175 0 0zm-12.72 4.32c-0.427-3.557 8.03-3.112 10.591-2.965 0.487 0.028 3.381 0.698 3.405 0.788 0.257 0.953 1.736 0.393 1.844 1.698-0.336 1.007-1.47 0.44-0.96 1.92-4.413 0.421-10.78 0.956-14.88-1.441 0 0 0.584 0.341 0 0zm2.88 5.76c-0.627-0.371-1.279 0.344-0.96-0.96 0.535 0.104 0.856 0.424 0.96 0.96 0 0-0.104-0.536 0 0zm-5.28-0.96c-1.265 0.283-3.445-0.504-3.36-1.92 1.484-0.025 2.66 0.612 3.36 1.92-1.443 0.323-0.613-1.147 0 0zm-10.08-4.32c-0.165 1.85-2.197 0.726-1.92 0-0.101 0.022 1.788-0.045 1.92 0 0 0-0.972-0.332 0 0zm-1.44-1.44c-0.39-0.41-1.347-0.253-1.44-0.96 0.919-0.119 1.27 0.33 1.44 0.96zm-1.92 0c0.242 0.242 0.652-0.225 0.48 0.48-0.705 0.173-0.238-0.238-0.48-0.48zm-1.44-0.48v1.44c-0.851-0.203-1.491-0.683-1.92-1.44 0.619 0 1.315-0.113 1.92 0zm-2.88-2.88c0.242 0.242 0.652-0.225 0.48 0.48-0.705 0.172-0.238-0.238-0.48-0.48zm0 1.92c0.242 0.242 0.652-0.225 0.48 0.48-0.705 0.172-0.238-0.239-0.48-0.48zm-0.96-2.4c0.242 0.242 0.652-0.225 0.48 0.48-0.705 0.172-0.238-0.238-0.48-0.48zm0.96 3.84v0.96c-0.784 0.104-1.265-0.215-1.44-0.96h1.44zm-1.92 1.92c5.368 1.642 12.299 4.173 18.24 4.32-0.314 0.889-0.954 1.209-1.92 0.96 0.284 1.435-0.566 2.448-0.48 3.84 1.483-0.263 3.433-1.648 4.8-1.44l-0.96-1.44h0.96c0.102-1.09-1.334-0.521-1.44-1.44 0.706 0.035 1.798 0.197 1.44-0.96 1.639 0.59 2.909 1.104 2.4 3.36h0.96c0.086-0.225-0.073-1.352 0-1.92 0.958-0.271 0.962 0.752 1.92 0.48-0.316 1.294-1.982 1.35-1.92 2.88-0.166 0.056-0.73-0.96-1.68-0.96-1.77 0-1.2 0.745-1.2 2.43 0 1.931-10.734 0.384-10.905-0.267-0.18-0.687-8.231-1.227-8.599-1.026-1.721 0.941-4.149-1.03-5.011-0.402-0.711 0.518-2.991 1.564-4.286 2.626 0.413-0.923 1.373-1.55 2.022-2.286 1.255-1.422 0.276-2.584 0.394-4.273 0.033-0.469 0.095-2.256-0.753-2.478-0.893-0.233-0.602-4.626-0.703-5.364 1.213-0.061 1.976 9.483 3.12 10.56 0.805-3.997-2.135-7.495-1.68-11.52 0.144 0.015 1.796 3.496 1.92 3.84 1.138 0.164 2.297 0.152 3.361 0.48 0.041 0.013-0.297-0.091 0 0zm18.24 6.72c-0.242 0.242 0.225 0.652-0.48 0.48-0.172-0.705 0.238-0.238 0.48-0.48zm-27.36 3.84c-0.844 0.436-1.484 1.076-1.92 1.92-1.026-0.189-1.987-0.03-2.88 0.48-2.123-0.832-3.391-1.04-3.982-3.218-0.528-1.947-1.523-1.807-1.104-4.268 0.248-1.451 0.778-2.881 1.759-4.001 1.836-2.097 6.252-3.517 8.212-1.558 1.434 1.434 0.887 3.499 2.315 5.125-0.337 2.109-2.392 3.269-2.4 5.52-0.844 0.436 0.01-2.63 0 0zm-0.96 2.4c0.165-0.955 1.275-0.965 1.44-1.92 1.179 0.5-0.372 2.1-1.44 1.92zm-2.4 0.96c0.958 0.272 0.962-0.751 1.92-0.48-0.114 0.89-3.541 3.407-4.32 3.36 0.28-1.44 2.249-1.348 2.4-2.88 1.117 0.317-0.158 1.602 0 0zm-1.92 0.96c-0.311-1.271 0.169-1.75 1.44-1.44-0.273 0.687-0.753 1.167-1.44 1.44 0 0 0.687-0.273 0 0zm-2.88-0.48c-0.242 0.242 0.225 0.652-0.48 0.48-0.172-0.705 0.238-0.238 0.48-0.48zm7.68-16.8c0.242-0.242-0.226-0.653 0.48-0.48 0.173 0.705-0.239 0.239-0.48 0.48zm0.96-0.96c-0.242-0.242-0.652 0.225-0.48-0.48 0.705-0.173 0.238 0.238 0.48 0.48zm0.96 1.44v0.96c-0.827 0.186-1.146-0.134-0.96-0.96h0.96zm2.4-3.84v0.96h-0.48c-0.274-0.921 0.379-0.727 0.48-0.96zm-0.48-0.48c0.242-0.242-0.225-0.652 0.48-0.48 0.172 0.705-0.238 0.238-0.48 0.48zm0.96-0.48c0.242-0.242-0.225-0.652 0.48-0.48 0.172 0.705-0.238 0.238-0.48 0.48zm3.84 0c0.242 0.242 0.652-0.225 0.48 0.48-0.705 0.172-0.238-0.238-0.48-0.48zm-1.44-0.48h0.96c0.444 1.325-1.231-0.122-0.96 0zm-0.48 0.96c0.101 0.233 0.754 0.04 0.48 0.96h-0.48v-0.96zm-0.96-1.92c0.242 0.242 0.652-0.225 0.48 0.48-0.705 0.172-0.238-0.238-0.48-0.48zm3.36 3.36c0.193 0.69 0 1.678 0 2.4-0.714 0.107-1.354-0.053-1.92-0.48 0.205-0.493 0.525-0.893 0.96-1.2-0.338-0.757-1.316 0.01-0.96 0.72h-1.44c-0.304-1.956 2.267-1.4 3.36-1.44 0 0-1.543 0.057 0 0zm-21.12 7.2c1.213-0.036 3.788-2.46 4.32-3.36 1.768-0.322 3.33-2.57 4.736-3.544 0.779-0.54 7.452-8.043 8.224-3.656-0.714-0.107-1.354 0.052-1.92 0.48-0.379-3.469-0.382 2.999-0.48 3.36-1.114-0.458-0.78-2.087-1.44-2.88-1.497-0.363-6.297 5.145-7.2 6.24-3.218 0.289-4.321 5.058-7.2 5.76-0.292-1.31 1.252-1.09 0.96-2.4 1.398-0.041 0.32 1.44 0 0zm0 4.8c-0.868 0.228-0.335-0.945-0.48-1.44 0.867-0.227 0.335 0.945 0.48 1.44zm0.48 1.44c1.224 1.017 1.645 2.835 1.44 5.28-1.215-1.025-1.157-3.323-1.44-5.28zm3.36 11.04c-1.663 0.47-2.39-0.257-1.92-1.92 1.052-0.074 1.516 0.763 2.64 0.48 0.707-0.4 0.629-1.178 1.68-0.96-0.738 0.885-1.995 1.218-2.4 2.4 0 0 0.408-1.192 0 0zm0.96 0c3.182-1.888 6.957-4.296 9.12-7.2 0.801-0.601 1.528-1.19 2.449-1.751 2.508-1.529 1.574-1.22 4.308-0.365 3.1 0.97 5.83 3.302 9.07 4.289 1.832 0.559 9.417 2.668 9.613 5.027-3.42-1.232-7.809-3.452-11.099-5.221-3.581-1.926-9.837-5.952-13.091-1.569-0.837 1.128-9.245 7.24-8.92 7.58 1.375 1.444 4.533 1.398 6.388 2.412 1.313 0.718 2.795 1.04 4.18 1.58 1.274 0.497 4.43 1.48 5.262 2.418-2.004 0.484-4.663-0.997-5.76-1.92-1.01-0.847-3.074-0.453-4.32-0.96 0.034 0.014-1.903-1.349-1.92-1.205 0.107-0.904-5.825-0.229-5.28-3.115 1.406-0.834 0 0 0 0zm11.52 8.64c0.283-0.182 0.019-0.761 0.96-0.48-0.076 0.55-0.396 0.709-0.96 0.48 0 0 0.425-0.055 0 0zm-4.8-1.92c0.283-0.182 0.019-0.761 0.96-0.48-0.076 0.55-0.396 0.71-0.96 0.48 0 0 0.425-0.055 0 0zm-0.48-0.96c-0.242 0.242 0.225 0.652-0.48 0.48-0.172-0.705 0.239-0.238 0.48-0.48zm-0.96 0c-1.568 0.085-4.396-0.948-3.84-2.88 1.356 0.851 2.663 1.791 3.84 2.88-1.861 0.101-1.164-1.076 0 0zm3.36 12.48c2.531-0.061 7.217 2.284 3.057 4.305-2.074 1.008-2.385 0.384-3.522-1.079-0.619-0.796-1.857-3.181-2.175-4.186-1.996 2.388 5.637 7.634-0.24 9.601 0.114-1.938-0.96-3.36-0.96-5.28v-4.8c0.74-0.166 4.266 0.323 3.84 1.439 2.131-0.051 0.297-0.777 0 0zm146.88 4.8h-1.44c-0.104 0.784 0.216 1.264 0.96 1.439-0.454 0.91-0.614 1.87-0.479 2.88-0.076 0.375-0.855 2.386-0.711 2.402 0.365 0.041-1.223 2.426-1.209 2.397-0.59 1.178-0.797 1.701-1.504 2.72 0.003-0.004-1.372 1.617-1.363 1.494-0.093 1.234-6.329 4.482-7.693 4.427 0.778-2.438 3.165-2.888 3.36-5.28-2.414 1.427-3.54 5.598-6.293 6.787-3.321 1.436-7.986 5.384-11.947 3.773-0.125 0.366 0.78 1.668 0.422 1.861-1.25 0.672-3.271 1.007-4.759 1.961-0.785 0.497-1.42 1.143-1.902 1.938-0.39 0.264-1.247-0.208-1.681 0-0.681 1.405-2.342 0.896-3.482 1.976-2.199 2.082-4.757 1.957-7.317 3.544-1.309 0.812-5.056 2.472-4.32-0.72 2.25-2.029 3.902-4.594 5.761-6.96-1.331-0.615-7.303 7.193-7.681 8.64 0.665 0.175 1.305 0.415 1.92 0.721-0.281 1.351-1.926 1.392-2.88 1.92 0.312-0.91-0.525-0.687-0.479-1.44-0.889 0.313-1.209 0.954-0.96 1.92-1.224 0.896-1.93 1.2-3.324 1.637-1.784 0.558-3.941 1.377-5.583 2.369-3.169 1.914-7.944 4.389-11.733 4.635 1.569-2.202 7.94-6.012 7.68-8.641-3.22 1.427-6.325 5.102-8.64 7.681-3.615-0.045-4.535-3.498-7.44-4.801-0.459 2.319 5.075 5.963 6.96 5.761-1.883 2.061-14.713 6.11-14.88 3.359 1.171 0.129 2.384-0.009 3.36-0.72-0.988-0.003-1.967 0.091-2.938 0.279-2.74 0.259-1.261-1.111-3.062-0.999-0.866 1.115 1.141 1.434 1.2 2.399-1.81 0.316-3.237-1.357-4.8-0.96-0.098-1.315 1.063-1.329 1.44-2.399-1.114 1.105-2.592-0.057-3.84 0-0.349 1.022 0.604 0.808 0.097 1.537-0.361 0.52-4.156-1.192-5.377-1.058-0.918-1.055-3.077-1.42-3.898-1.861-0.924-0.497-2.054-0.98-3.24-1.68-1.222-0.72-4.902-4.734-5.552-6.637-0.947-2.771 7.349-4.943 8.371-7.822-0.668-0.591-7.476 4.478-8.16 5.521-4.531 1.021-4.057-6.474-7.2-6.24 0.228 1.521 2.409 5.597 3.84 5.76 0.324 2-1.831 3.674-3.36 4.561 1.95 1.291 3.27-2.443 5.76-1.2 1.059 1.928 4.007 3.245 4.32 5.279-1.833 0.109-3.694-0.346-4.8-1.92-1.403 0.161-3.937-0.993-5.122-1.503-3.083-1.324-6.716-3.686-10.238-3.776-0.542-2.886 7.889-3.905 7.68-6.721-2.594-0.336-5.29 4.801-8.04 4.801-2.733 0-3.824-7.196-5.88-6.721 0.478 1.561 1.49 2.819 2.24 4.24 0.75 1.418 2.264 1.698 2.08 3.44-3.265 0.175-7.336-4.046-7.68-7.2 1.037 0.077 1.517-0.403 1.44-1.44-0.91-0.311-0.686 0.526-1.44 0.48 0.144-2.294-1.91-3.693-1.44-6.24 1.291 0.984 1.509 2.727 2.64 3.84 0.478-1.662-0.772-3.522-2.16-4.32 0.219-1.809-1.701-3.308-1.94-5.1-0.477-3.568-2.687-7.769-0.939-11.7 1.118 0.118 2.037-2.172 2.952-1.191 1.179 1.265 2.255 1.958 3.206 3.674 0.927 1.673 2.505 2.592 2.482 4.718-1.83 1.731-4.554 2.164-6.24 4.08 1.789 1.084 4.619-2.64 6.6-2.64 2.54 0 3.223 5.619 5.88 5.76-0.154-1.384-2.417-3.65-3.305-4.695-2.122-2.496 1.387-4.752 3.087-5.986 2.678-1.944 4.048-4.438 6.199-1.06 0.814 1.278 1.948 3.972 3.619 4.062-0.255-2.143-4.075-7.401-6-7.2-1.38 2.118-8.555 7.657-9.993 4.473-0.767-1.698-2.298-3.2-3.526-4.634-2.104-2.456 1.383-3.455 2.802-4.916 1.998-2.057 3.964-0.157 6.511 0.498 2.177 0.561 2.477 3.529 4.445 3.619-0.487-0.732-0.807-1.532-0.96-2.4 0.857 0.1 5.172 1.563 2.4 1.92v0.72c1.875 0.378 3.062-1.397 5.28-0.72 1.756 0.54 3.308 1.443 5.271 1.809 3.273 0.607 4.114 1.778 1.108 3.804-1.703 1.147-2.938 2.422-4.7 3.508-0.944-0.631-2.423-0.597-2.965 0.571-0.808 1.741-0.942 1.54-2.557 2.883-1.505 1.251-3.416 2.626-4.625 3.359-3.526 2.139-5.998 5.622-9.773 7.826-0.101 1.301 3.961-1.812 4.022-1.856 1.782-1.284 2.783-3.057 5.108-1.754 1.848 1.036 1.835 5.048 4.549 5.771 0.866 0.068-3.6-5.618-3.6-6.109 0-0.774-0.314-2.31 0-3.011 0.741-0.781 2.482-0.411 2.4-1.92 0.925-0.196 4.805-2.189 5.28-3.359 1.579 0.528 4.967 4.537 5.28 6.239 0.415-0.114 0.735-0.354 0.96-0.72-1.52-1.033-4.786-4.927-3.84-6.96 1.328-1.304 8.013-4.381 8.147-6.133 0.039-0.513 7.133 0.655 8.173 0.853 0.615 1.252 2.958 1.058 3.782 1.499-0.278-0.149-3.438 3.244-3.782 4.021 1.038 0.579 3.259-1.752 3.36-2.64 1.255 0.296 0.856-0.89 1.44-1.44 1.421 0.623 2.902 1.094 4.441 1.318 2.306 0.337 5.638 0.481 5.638 3.722 0 1.959-6.899 6.174-8.64 7.439 0.106-0.343-2.786-2.89-3.25-3.55-0.629-0.897-3.635-3.791-3.471-4.609-1.531-0.198-4.825 3.064-5.76 4.319-1.601 0.426-5.138 2.458-4.8 3.84 2.777-0.594 4.43-2.771 6.554-4.426 0.872-0.68 3.074-2.83 4.006-2.773 1.173 1.484 1.618 3.476 3.017 4.904 1.557 1.59 0.135 3.665 1.304 4.695-3.656 1.441-5.688 4.754-8.64 6.48 1.272 0.417 8.551-4.443 8.16-5.521 1.685 0.432 5.85-4.453 7.367-5.773 1.602-1.393 3.42-2.292 4.579-4.041 0.729-1.1 0.977-0.547 2.121-2.198 0.7-0.889 1.291-1.845 1.773-2.867 1.27 0.255 2.226-0.029 3.368-0.521 3.144-1.352 6.962-3.343 10.552-3.8-0.333 1.716-1.892 2.694-2.399 4.32-1.294-0.315-1.35-1.982-2.88-1.92 0.405 1.052 1.045 1.932 1.92 2.64-0.303 1.534-1.458 2.436-2.268 3.673-0.896 1.37-3.923 4.017-3.973 5.688-3.596-0.185-2.812 0.853-4.916-2.164-0.808-1.158-0.423-2.078-1.624-2.816-1.425-0.876-1.528 1.498-2.581 2.341 0.651 0.704 1.539-0.593 2.4-0.24-0.699 1.064-3.12 1.501-2.88 2.64-0.065 0.839 3.503-1.448 3.84-1.68-0.146 2.057-3.106 2.534-4.32 4.08-0.103 1.33 3.769-1.777 3.801-1.8 1.502-1.025 3.754 0.313 3.399 2.52-1.358 0.802-2.388 2.601-3.658 3.782-0.767 0.669-1.308 1.488-1.622 2.458-1.495 0.358-2.521 1.385-2.88 2.88 1.311 0.291 1.09-1.251 2.4-0.96 0.376 1.12-3.392 1.589-0.911 4.03 0.879 0.865 0.414 2.19 1.66 2.18 0.585-0.004-0.829 2.105-0.75 2.43 1.299-0.937 2.343-0.785 3.84-0.479-0.81-1.049-1.462-2.823-2.312-3.328-2.125-1.264 0.304-1.304-0.088-2.912-1.311-0.291-1.09 1.251-2.4 0.96-0.009-0.852 2.373-2.704 1.91-3.19-0.723-0.759 0.919-2.561 1.844-3.255 1.248-0.937 1.901-2.063 2.919-2.801 2-1.447 0.92-0.837 3.167 0.606 0.239-0.689 0.099-1.301-0.421-1.836-0.911-1.064-0.578-0.945 0.049-2.375 0.264-0.722 0.788-1.078 1.571-1.069-0.018-1.197 0.673-1.819 1.456-2.576 0.611-0.604 1.892-2.008 1.892-2.464 0-1.504 2.608-2.474 2.4-4.08 1.678-1.021 3.999-4.59 4.32-6.24 4.06-0.096 10.935-3.133 14.399-5.279 0.43 1.803-1.728 3.467-2.405 4.795-2.223 4.356-2.167 0.09-5.274-0.476 0.212 1.264 1.323 1.737 1.98 2.699 1.395 2.039 0.922 0.123 3.06 0.661 0.228-0.013 3.235-5.989 4.08-6.72 0.96-1.406-1.188-0.871 1.146-1.974 1.459-0.689 3.298-1.385 4.906-2.226 1.686-0.881 3.296-1.813 5.227-2.041 0.78-2.085 2.313-0.663 3.601-0.96-0.588 2.841-4.32 6.318-4.32 8.399 0 1.065-1.259 1.971-2.399 1.681-0.748-1.6-2.716-4.809-4.801-4.8 1.799 1.458 2.195 4.029 4.32 5.279-0.107 1.128 0.48 1.141 0.48 2.041 0 1.532-1.552 2.951-2.269 4.211-0.861 1.514-2.057 4.309-3.731 4.309-1.643 0-4.037-3.318-5.291-4.754-1.934-2.215-3.164-1.235-4.595 0.669-0.368 0.489-2.6 4.133-2.354 4.564-0.249 0.375-0.708 0.206-1.298 1.103-0.832 1.264-0.813 1.777-2.302 1.777-2.696 0-3.593-5.458-6.001-5.279-0.068 1.203 2.455 3.693 2.98 4.219 2.528 2.528 1.672 4.287-0.126 7.515-0.606 1.087-3.127 5.066-4.189 5.066-1.899 0-1.515 0.323-2.436-1.189-0.419-0.688-2.79-2.698-3.43-2.65 0.784 2.632 5.519 4.175 3.36 7.199-1.877 2.639-5.941 6.355-8.64 7.921 2.313 1.441 6.908-4.627 8.23-6.151 1.231-1.419 2.369-3.517 3.976-1.375 0.729 0.973 3.192 3.358 4.354 3.446 1.312-1.191-8.398-4.903-3.689-7.29 3.099-1.57 3.18-6.971 6.81-8.551 0.443 1.7 4.834 6.021 6.24 6.24-2.404-4.773-7.599-5.198-4.037-10.619 0.945-1.439 3.786-7.141 5.236-7.141 1.489 0 3.018 3.297 4.528 4.473 2.472 1.923 0.532 4.178 0.032 5.607-0.289 0.817-0.483 1.711-0.96 2.399-1.233 1.795-3.566 3.422-4.32 5.521-0.118 1.532 4.464-3.957 4.691-4.309 1.063-1.644 2.027-3.349 2.989-5.052 1.073-0.294 1.391 0.629 2.399 0.48-0.065 1.153 1.891 3.249 2.88 3.359-0.615 2.173 2.573 1.652 2.4 3.36 4.368-1.349 4.762-7.177 8.16-9.6 0.288-0.68 2.682-5.195 2.4-5.761 0.761-0.473 1.266-1.141 1.516-2.004 0.656-1.811 1.308-1.029 2.08-2.56 0.912-1.804 1.768-3.041 2.578-4.861 0.926-2.078 4.654-5.262 3.906-7.854-1.758 0.445-3.143 5.156-3.841 6.24-4.128 6.487-5.675-4.473-10.08-4.32 0.304 1.558 3.323 4.705 4.636 5.78 2.911 2.385 1.95 4.179-0.065 6.744-1.7 2.164-1.317 4.253-4.33 5.716-2.001 0.473-3.558-4.337-6-4.801 1.079 0.984 4.352 6.816 5.76 6.721 0.343 2.527-4.698 8.525-6.72 9.6-0.075-3.579-7.581-5.299-5.628-9.047 2.125-4.076 5.571-7.688 7.173-11.647 0.545-1.347 3.944-8.872 4.695-8.586 0.295-0.771-0.774-0.188-0.48-0.96 0.903-0.743 2.21-0.543 3.188-1.131 1.963-1.18 4.229-1.039 5.703-3.178 2.688-3.901 3.703 1.909 5.588 1.909 2.097 0 3.443-1.635 3.761-3.84 0.533-0.07 2.617-3.462 2.4-3.84 2.522-0.252 4.456-2.093 6.96-2.4 0.716-1.479 4.494-2.169 6.103-2.873 5.621-2.46-2.201 8.604-2.982 10.073-2.334-0.636-2.558-5.615-5.761-5.28 1.897 2.905 4.782 4.907 4.363 7.907 0.35 1.257-2.635 2.506-2.431 3.621 0.047 0.257-1.272 2.392-1.452 2.871-2.333 6.151-5.52-4.225-7.68-3.359-0.013-0.057-0.183-1.831-0.721-0.96-0.908-0.071 2.083 3.51 2.641 3.84 0.051 0.972 0.53 1.611 1.439 1.92 0.143 1.654 0.711 3.105 0.48 4.8-0.1 0.021-1.857 2.265-1.92 2.4-0.287 0.619-1.987 2.883-1.903 3.372 0.094 0.621-0.226 1.038-0.959 1.252-1.616 1.075-1.78-0.282-2.812-1.59-1.108-1.405-2.538-4.184-4.405-4.475 1.444 3.125 4.807 4.921 5.76 8.16 0.949 0.246 4.007-3.126 3.84-4.32 2.174-2.151 5.822-7.178 6.24-10.079 2.631-0.951 2.76-6.729 5.76-7.681 0.242 1.415 2.562 5.134 3.84 5.28 0.845 4.814 3.083 0.8 4.8-0.48 0.25 1.683-0.65 3.126-0.52 4.793 0 0-0.15-1.912 0 0zm-90.72 12.48c-0.182-0.752 0.815-0.324 0.48-1.2-0.004-0.706-1.779 0.341-1.44-0.72 1.692-0.597 2.411 0.639 3.84-0.479-0.166 1.492-1.385 2.042-2.4 2.88 0.031-0.351-0.13-0.511-0.48-0.481-0.179-0.739 0.293 0.027 0 0zm69.12-25.44c-0.209 0.355-2.596 3.416-2.88 3.36-0.169-1.434-1.874-1.438-2.335-2.657-0.637-1.684 4.706-3.198 6.175-3.583-0.47 1.113-0.49 2.079-0.96 2.88-0.09 0.159 0.14-0.239 0 0zm23.52-4.32c-1.5-0.675-1.745-2.544-3.12-3.36-0.202-0.016 2.676 5.711 2.684 6.603 0.012 1.251 0.18 7.797-1.484 7.797-1.924 0-0.684 5.353-3.514 1.914-1.091-1.326-2.842-5.549-4.646-5.754 1.227-4.189 4.655-7.275 5.76-11.52 0.166-0.277 1.196-0.941 1.694-1.825 0.604-1.071 1.874-2.308 3.586-2.015-0.39 2.705-0.26 5.502-0.96 8.16-1.49-0.67 0.63-2.406 0 0zm-4.8-5.28v-0.96h0.479c0.27 0.919-0.38 0.727-0.48 0.96zm8.64-12.48c-0.068 0.913-0.298 2.701-0.479 3.84-0.529 3.309-1.661 2.862-3.921 4.575-3.406 2.584-8.055 3.067-11.648 5.136-3.198 1.84-10.282 2.668-12.751 5.649-1.083 0.516-2.639 0.847-3.824 1.216-2.552 0.794-3.904 2.353-5.774 3.825-1.356 1.068-3.921 1.605-5.585 2.155-1.627 0.537-2.455-0.035-4.257 0.004-0.499 1.032-0.975 0.819-2.018 1.103-1.336 0.362-3.857 1.715-4.942 2.737-1.759-0.011-4.6 1.405-6.135 2.254-2.857 1.58-6.393 3.726-9.945 3.986-0.815 1.697-5.555 1.945-6.96 2.88-1.628 1.095-4.306 0.635-5.963 1.836-2.778 2.014-9.479 3.505-13.236 3.444-3.007-0.049-7.043-0.988-10.08-1.92-1.896-0.58-6.283-2.783-8.638-2.418-0.329 0.052-2.027-0.316-1.922-0.942-3.363 0.079-6.265-1.857-9.6-1.92 0.132-0.359-13.04-4.372-14.555-5.125-1.786-0.887-4.206-1.438-6.177-1.983-1.867-0.516-3.668-2.131-5.668-2.012 0.187-0.508-3.305-1.714-3.953-2.286-2.047-1.811-1.738-6.091-2.287-8.753 4.05 0.832 7.431 3.979 11.556 4.604 2.841 0.43 5.582 2.254 8.988 2.932 7.084 1.409 12.756 3.928 19.777 5.561 4.022 0.935 8.487 1.644 11.999 3.224 1.516 0.685 2.875 0.588 4.32 0.96 3.297 0.847 6.934 0.816 10.56 0.48-0.947 1.584-2.07 0.161-2.4 1.92 1.325-0.64 3.856-0.065 3.36-2.4 0.546-0.314 1.589 0.28 2.16 0 0.534-1.102 1.146-0.915 2.327-1.225 5.074-1.333 9.743-2.817 14.657-4.741 8.783-3.438 16.219-6.509 24.904-9.746 4.264-1.589 8.422-1.561 12.479-3.601 0.407-0.204 3.771-2.583 3.952-3.248 2.109-0.246 5.148-1.398 6.72-2.88 1.378 0.018 9.673-3.259 9.601-4.32 2.302 0.586 5.212-2.293 7.209-3.111 1.935-0.792 6.667-1.908 7.671-4.089 0.91 0.376 0.54 1.719 0.49 2.399-0.04 0.55 0.06-0.785 0 0zm-2.4-2.4c0.169-1.287 1.439-0.649 1.439-2.56 0-1.247-1.337-0.816-1.439-1.76 3.73-0.717 3.46 3.902 0 4.32 0.09-0.707 1.86-0.224 0 0z"/>
	<path d="m148.8 21.6c-0.788 1.522-1.059 2.276-1.939 3.18-0.76 0.774-0.21-2.462 1.94-3.18-0.44 0.843-1.44 0.482 0 0z"/>
	<path d="m154.08 33.12c-0.075 0.617 1.583 3.663-0.098 2.497-0.11-0.078-0.76-2.135 0.1-2.497-0.13 1.092-1.42 0.598 0 0z"/>
	<path d="m151.2 36.96c1.534-0.523 1.559 1.671 1.764 2.543 0.164 0.693 1.461 2.156 1.116 3.697-1.48 0-2.32-4.622-2.88-6.24 0.97-0.332 0.7 2.02 0 0z"/>
	<path d="m72 122.88c-0.216-0.633 8.108-6.934 9.6-6.72-0.867 1.432-2.283 2.354-3.36 3.6-0.158 0.599 1.117-0.118 0.96 0.48-0.275 1.588-1.937 1.852-2.88 2.88 0.97 0.885 1.288-1.081 2.4-0.72-0.129 2.107-2.893 1.85-4.32 1.92 0.611-1.829 2.441-2.577 3.84-4.08-0.044-0.32-5.242 2.72-6.24 2.64-0.332-0.97 2.445 0.2 0 0z"/>
</g>
<metadata><rdf:RDF><cc:Work><dc:format>image/svg+xml</dc:format><dc:type rdf:resource="http://purl.org/dc/dcmitype/StillImage"/><cc:license rdf:resource="http://creativecommons.org/licenses/publicdomain/"/><dc:publisher><cc:Agent rdf:about="http://openclipart.org/"><dc:title>Openclipart</dc:title></cc:Agent></dc:publisher><dc:title>grocery basket</dc:title><dc:date>2013-11-08T13:16:45</dc:date><dc:description>The Herald, Algiers, LA. 1921</dc:description><dc:source>http://openclipart.org/detail/188484/grocery-basket-by-johnny_automatic-188484</dc:source><dc:creator><cc:Agent><dc:title>johnny_automatic</dc:title></cc:Agent></dc:creator><dc:subject><rdf:Bag><rdf:li>grocery</rdf:li><rdf:li>groceries</rdf:li><rdf:li>shopping</rdf:li><rdf:li>food</rdf:li><rdf:li>basket</rdf:li></rdf:Bag></dc:subject></cc:Work><cc:License rdf:about="http://creativecommons.org/licenses/publicdomain/"><cc:permits rdf:resource="http://creativecommons.org/ns#Reproduction"/><cc:permits rdf:resource="http://creativecommons.org/ns#Distribution"/><cc:permits rdf:resource="http://creativecommons.org/ns#DerivativeWorks"/></cc:License></rdf:RDF></metadata></svg>
